<svg width="255" height="255" viewBox="0 0 255 255" fill="none" xmlns="http://www.w3.org/2000/svg">
<rect width="255" height="255" rx="50" fill="#242938"/>
<path d="M163.778 136.353C160.378 136.363 156.988 135.993 153.67 135.25C155.604 139.429 157.083 143.804 158.081 148.299C159.919 148.299 161.818 148.299 163.778 148.299C170.026 148.289 176.231 147.275 182.157 145.297L176.46 134.208C172.351 135.501 168.084 136.222 163.778 136.353Z" fill="white"/>
<path d="M132.105 124.468L129.9 122.14C125.117 117.463 121.428 111.786 119.098 105.516C116.767 99.2454 115.854 92.5371 116.422 85.8719C117.048 76.9443 120.334 68.409 125.857 61.3668L125.366 70.1274C125.36 71.661 125.929 73.1412 126.962 74.2755C127.994 75.4098 129.414 76.1156 130.941 76.2537H131.493C133.026 76.2599 134.507 75.6907 135.641 74.6584C136.775 73.6262 137.481 72.2061 137.619 70.6787L139.702 45.6222C139.775 44.7349 139.654 43.8422 139.348 43.0063C139.041 42.1705 138.555 41.4116 137.925 40.7824C137.255 40.2392 136.477 39.8438 135.643 39.6221C134.809 39.4004 133.937 39.3574 133.086 39.4959L108.029 41.6401C106.404 41.7782 104.901 42.5561 103.85 43.8027C102.798 45.0492 102.285 46.6624 102.423 48.2871C102.562 49.9119 103.339 51.4153 104.586 52.4666C105.833 53.5178 107.446 54.0308 109.07 53.8927L116.973 53.2188C109.532 62.5307 105.146 73.9128 104.415 85.8107C103.781 93.9645 104.915 102.159 107.738 109.835C110.561 117.51 115.007 124.487 120.772 130.288L122.671 132.554C130.499 140.645 135.004 151.38 135.291 162.634C135.618 167.732 135.079 172.848 133.698 177.766L144.725 183.341C147.098 176.436 148.036 169.119 147.482 161.838C147.106 147.918 141.635 134.621 132.105 124.468Z" fill="white"/>
<path d="M218.118 124.713L210.706 125.264C217.47 116.509 221.642 106.032 222.747 95.0241C223.852 84.0161 221.846 72.9188 216.957 62.9942C212.068 53.0697 204.493 44.716 195.092 38.8834C185.691 33.0507 174.842 29.9729 163.778 30.0002C157.529 29.9894 151.32 31.0035 145.399 33.0021L150.974 44.0294C157.968 42.0486 165.326 41.7175 172.47 43.0621C179.614 44.4067 186.348 47.3903 192.143 51.7783C197.938 56.1663 202.637 61.839 205.868 68.3502C209.1 74.8614 210.777 82.0336 210.767 89.3026C210.765 99.8072 207.202 110.001 200.659 118.219L201.271 108.784C201.323 107.98 201.217 107.173 200.957 106.41C200.698 105.646 200.29 104.942 199.758 104.336C199.226 103.73 198.58 103.235 197.857 102.878C197.134 102.522 196.348 102.312 195.543 102.26C194.739 102.207 193.932 102.314 193.168 102.574C192.405 102.833 191.7 103.241 191.095 103.773C190.489 104.304 189.993 104.95 189.637 105.674C189.281 106.397 189.071 107.183 189.019 107.988L187.303 132.983C187.255 133.87 187.399 134.756 187.727 135.581C188.055 136.406 188.558 137.15 189.202 137.762C189.753 138.32 190.412 138.761 191.139 139.056C191.866 139.351 192.645 139.494 193.43 139.477H194.042L219.037 136.904C219.843 136.827 220.626 136.592 221.341 136.211C222.055 135.83 222.687 135.311 223.2 134.684C223.712 134.058 224.096 133.336 224.328 132.56C224.56 131.784 224.636 130.97 224.551 130.165C224.381 128.605 223.619 127.17 222.422 126.156C221.225 125.142 219.685 124.625 218.118 124.713Z" fill="white"/>
<path d="M44.5607 140.212H45.0508L70.1073 138.068C70.9119 138 71.695 137.773 72.4121 137.402C73.1292 137.031 73.7662 136.523 74.2868 135.905C74.8073 135.288 75.2011 134.574 75.4458 133.805C75.6905 133.036 75.7813 132.225 75.7129 131.421C75.6445 130.616 75.4183 129.833 75.0473 129.116C74.6762 128.399 74.1676 127.762 73.5503 127.241C72.9331 126.721 72.2194 126.327 71.4499 126.082C70.6805 125.838 69.8704 125.747 69.0659 125.815L60.5503 126.55C68.5713 120.633 78.2737 117.435 88.2412 117.422C91.599 117.442 94.9457 117.812 98.227 118.525C96.3027 114.348 94.8441 109.972 93.8773 105.476C92.0395 105.476 90.1403 105.476 88.2412 105.476C75.1703 105.457 62.4607 109.765 52.0961 117.729L52.8312 109.703C52.8982 108.898 52.8053 108.088 52.5579 107.319C52.3105 106.55 51.9135 105.837 51.3896 105.222C50.8658 104.607 50.2255 104.102 49.5056 103.736C48.7857 103.369 48.0005 103.149 47.195 103.087C45.5788 102.951 43.9748 103.462 42.7345 104.507C41.4942 105.552 40.7189 107.046 40.5786 108.662L38.4344 133.657C38.3666 134.502 38.4748 135.351 38.7522 136.152C39.0296 136.953 39.4701 137.688 40.0459 138.309C40.6216 138.931 41.3202 139.427 42.0973 139.765C42.8744 140.103 43.7133 140.276 44.5607 140.273V140.212Z" fill="white"/>
<path d="M132.473 187.936L107.416 189.59C105.792 189.696 104.275 190.442 103.201 191.666C102.127 192.889 101.583 194.49 101.688 196.114C101.794 197.739 102.541 199.256 103.764 200.33C104.988 201.404 106.588 201.948 108.213 201.843L117.647 201.169C110.709 206.745 102.337 210.247 93.4944 211.272C84.6522 212.297 75.7005 210.802 67.6709 206.96C59.6414 203.118 52.8609 197.085 48.1109 189.557C43.3609 182.029 40.8348 173.312 40.8237 164.411C40.8679 160.266 41.4654 156.145 42.6004 152.158L31.8794 146.461C29.9815 152.298 29.0099 158.396 29 164.533C29.0719 175.628 32.2484 186.481 38.17 195.864C44.0915 205.247 52.5216 212.785 62.5057 217.624C72.4899 222.463 83.6294 224.41 94.6632 223.245C105.697 222.08 116.184 217.849 124.938 211.032L124.203 218.261C124.118 219.062 124.191 219.871 124.419 220.643C124.648 221.415 125.026 222.135 125.532 222.761C126.038 223.386 126.663 223.906 127.371 224.291C128.078 224.675 128.854 224.916 129.655 225H130.329C131.853 225.008 133.325 224.447 134.458 223.427C135.591 222.408 136.303 221.003 136.455 219.486L139.028 194.614C139.119 193.727 139.016 192.832 138.725 191.989C138.434 191.147 137.964 190.378 137.345 189.737C136.727 189.095 135.976 188.596 135.145 188.275C134.314 187.953 133.423 187.816 132.534 187.875L132.473 187.936Z" fill="white"/>
</svg>
