<svg width="255" height="255" viewBox="0 0 255 255" fill="none" xmlns="http://www.w3.org/2000/svg">
<rect width="255" height="255" rx="50" fill="#242938"/>
<path d="M229.183 79.2704C229.181 75.3745 228.352 71.932 226.674 68.9782C225.026 66.0721 222.557 63.6369 219.246 61.7116C191.918 45.887 164.562 30.1108 137.242 14.27C129.877 9.99992 122.736 10.1564 115.425 14.4878C104.547 20.9293 50.0862 52.2631 33.8575 61.7027C27.1741 65.5889 23.922 71.5351 23.9204 79.2631C23.9099 111.087 23.9204 142.912 23.9099 174.736C23.9099 178.546 24.7059 181.923 26.3099 184.832C27.9588 187.825 30.4616 190.327 33.8487 192.296C50.0782 201.736 104.546 233.067 115.422 239.511C122.736 243.845 129.877 244 137.245 239.729C164.565 223.887 191.922 208.111 219.255 192.287C222.642 190.319 225.145 187.815 226.794 184.824C228.396 181.914 229.193 178.538 229.193 174.727C229.193 174.727 229.193 111.095 229.183 79.2704Z" fill="#A179DC"/>
<path d="M126.866 126.689L26.3101 184.832C27.959 187.825 30.4618 190.327 33.8489 192.296C50.0783 201.736 104.547 233.067 115.422 239.511C122.736 243.845 129.877 244 137.245 239.729C164.566 223.888 191.923 208.111 219.256 192.287C222.643 190.319 225.145 187.815 226.794 184.824L126.866 126.689Z" fill="#280068"/>
<path d="M229.183 79.2705C229.181 75.3746 228.352 71.9321 226.674 68.9783L126.866 126.69L226.794 184.824C228.396 181.914 229.192 178.538 229.193 174.727C229.193 174.727 229.193 111.096 229.183 79.2705Z" fill="#390091"/>
<path d="M186.07 104.954V115.822H196.892V104.954H202.303V115.822H213.126V121.256H202.303V132.123H213.126V137.558H202.303V148.426H196.892V137.558H186.07V148.426H180.659V137.558H169.837V132.123H180.659V121.256H169.837V115.822H180.659V104.954H186.07ZM196.892 121.255H186.07V132.123H196.892V121.255Z" fill="white"/>
<path d="M127.087 50.3734C155.314 50.3734 179.959 65.7681 193.16 88.6512L193.031 88.431L159.819 107.634C153.276 96.509 141.281 89.0004 127.52 88.8456L127.086 88.8432C106.102 88.8432 89.0906 105.927 89.0906 126.999C89.0837 133.641 90.8116 140.168 94.1018 145.93C100.651 157.412 112.963 165.156 127.087 165.156C141.298 165.156 153.68 157.313 160.195 145.709L160.037 145.987L193.199 165.279C180.143 187.969 155.836 203.316 127.937 203.622L127.087 203.627C98.77 203.627 74.0555 188.137 60.8878 165.133C54.4598 153.902 50.782 140.883 50.782 126.999C50.782 84.6803 84.9437 50.3726 127.086 50.3726L127.087 50.3734Z" fill="white"/>
</svg>
