<svg width="255" height="255" viewBox="0 0 255 255" fill="none" xmlns="http://www.w3.org/2000/svg">
<rect width="255" height="255" rx="50" fill="white"/>
<g clip-path="url(#clip0_3_40)">
<path d="M164.697 96.8162L141.615 104.353L121.535 113.215L115.918 114.698C114.487 116.059 112.987 117.438 111.364 118.833C109.585 120.368 107.927 121.764 106.654 122.776C105.241 123.893 103.147 125.986 102.083 127.312C100.495 129.301 99.2392 131.412 98.6983 133.034C97.7387 135.965 98.21 138.931 100.059 141.67C102.432 145.159 107.16 148.718 112.673 151.143C115.481 152.382 120.209 153.969 123.768 154.859C129.682 156.359 141.127 157.982 147.425 158.226C148.698 158.279 150.408 158.279 150.478 158.226C150.617 158.139 151.594 156.272 152.728 153.952C156.601 146.049 159.393 138.634 160.91 132.302C161.818 128.464 162.533 123.352 163.004 117.298C163.126 115.606 163.178 109.936 163.074 108.017C162.916 104.877 162.637 102.33 162.201 99.8349C162.132 99.4684 162.114 99.1369 162.149 99.1195C162.219 99.0672 162.428 98.9975 165.272 98.1773L164.696 96.8167V96.8163H164.697V96.8162ZM159.428 99.9043C159.637 99.9043 160.195 105.26 160.335 108.645C160.37 109.36 160.352 109.831 160.317 109.831C160.178 109.831 157.369 108.174 155.363 106.918C153.618 105.819 150.304 103.62 149.78 103.202C149.606 103.08 149.623 103.062 151.054 102.574C153.479 101.754 159.236 99.9043 159.428 99.9043ZM147.669 103.777C147.826 103.777 148.227 104.004 149.187 104.597C152.781 106.848 157.666 109.569 159.759 110.477C160.405 110.756 160.474 110.651 158.992 111.663C155.816 113.826 151.856 115.955 147.006 118.101C146.151 118.484 145.436 118.781 145.419 118.781C145.384 118.781 145.488 118.345 145.628 117.821C146.797 113.477 147.46 109.081 147.495 105.557C147.512 103.812 147.512 103.812 147.669 103.76C147.634 103.777 147.652 103.777 147.669 103.777ZM145.244 104.702C145.349 104.806 145.279 108.715 145.139 109.779C144.825 112.326 144.337 114.698 143.535 117.368C143.343 118.013 143.168 118.554 143.133 118.589C143.063 118.676 140.673 116.338 139.888 115.431C138.527 113.861 137.463 112.291 136.678 110.756C136.277 109.971 135.649 108.435 135.701 108.383C135.98 108.191 145.174 104.632 145.244 104.702ZM133.834 109.185C133.852 109.185 133.869 109.185 133.887 109.203C133.922 109.238 134.044 109.517 134.149 109.831C134.707 111.349 135.963 113.582 137.045 115.012C138.231 116.583 139.784 118.257 141.074 119.356C141.493 119.705 141.877 120.037 141.929 120.089C142.034 120.194 142.069 120.176 139.225 121.258C135.928 122.514 132.334 123.77 128.217 125.096C127.233 125.413 126.251 125.733 125.269 126.056C125.112 126.108 125.164 126.021 125.618 125.306C127.659 122.113 130.764 115.85 132.509 111.419C132.805 110.651 133.102 109.883 133.154 109.709C133.224 109.464 133.311 109.377 133.538 109.255C133.66 109.221 133.782 109.185 133.834 109.185ZM130.346 110.633C130.398 110.669 129.508 112.535 128.636 114.245C126.943 117.542 125.094 120.787 122.617 124.73C122.198 125.41 121.797 126.038 121.745 126.108C121.657 126.23 121.622 126.195 121.343 125.655C120.75 124.486 120.262 122.985 120 121.607C119.738 120.246 119.791 117.874 120.087 116.408C120.314 115.327 120.297 115.344 120.82 115.082C123.053 113.948 130.276 110.564 130.346 110.633ZM160.44 111.855V112.588C160.44 116.478 160.021 121.816 159.41 125.707C159.305 126.387 159.218 126.945 159.201 126.963C159.201 126.963 158.695 126.824 158.102 126.649C155.485 125.829 152.641 124.625 150.077 123.212C148.384 122.288 145.924 120.77 145.994 120.7C146.011 120.682 146.744 120.299 147.599 119.845C151.019 118.066 154.298 116.147 157.142 114.245C158.206 113.53 159.811 112.378 160.161 112.064L160.44 111.855ZM117.174 117.019C117.243 117.019 117.226 117.158 117.121 117.786C117.051 118.24 116.964 119.077 116.93 119.653C116.79 122.2 117.209 124.084 118.465 126.666C118.814 127.382 119.093 127.975 119.075 127.992C118.953 128.097 107.404 131.482 103.775 132.476C102.694 132.772 101.752 133.034 101.681 133.051C101.56 133.086 101.542 133.069 101.594 132.772C101.996 130.208 103.95 126.858 106.671 124.032C108.486 122.148 109.934 121.049 112.411 119.635C114.19 118.624 116.929 117.106 117.139 117.036C117.139 117.019 117.156 117.019 117.174 117.019ZM144.389 121.886C144.407 121.869 144.825 122.096 145.331 122.392C149.065 124.555 154.264 126.562 158.695 127.591L159.096 127.678L158.538 127.992C156.218 129.283 148.594 132.458 140.796 135.372C139.661 135.79 138.545 136.209 138.335 136.296C138.126 136.383 137.934 136.436 137.934 136.419C137.934 136.401 138.248 135.79 138.649 135.04C140.83 130.958 143.028 125.986 144.145 122.532C144.285 122.2 144.372 121.904 144.389 121.886ZM141.615 122.793C141.633 122.811 141.493 123.177 141.319 123.596C139.801 127.277 137.812 131.29 135.265 135.791C134.62 136.942 134.079 137.867 134.061 137.867C134.044 137.867 133.52 137.553 132.892 137.169C129.194 134.901 125.914 132.11 123.768 129.405L123.454 129.022L125.042 128.585C130.729 127.033 135.561 125.358 140.359 123.3C141.04 123.02 141.598 122.793 141.615 122.793ZM158.852 128.812C158.869 129.213 157.98 132.807 157.247 135.407C156.636 137.587 156.113 139.297 155.153 142.315C154.735 143.641 154.369 144.74 154.351 144.74C154.334 144.74 154.229 144.723 154.124 144.688C148.943 143.746 144.302 142.437 139.941 140.693C138.719 140.204 136.975 139.419 136.87 139.332C136.835 139.297 137.882 138.809 139.208 138.233C147.146 134.761 155.38 130.818 158.206 129.126C158.538 128.917 158.8 128.812 158.852 128.812ZM119.058 130.173C119.093 130.208 116.877 133.401 113.772 137.745C112.69 139.262 111.434 141.042 110.963 141.705C110.492 142.368 109.777 143.414 109.375 144.043L108.642 145.177L107.857 144.514C106.933 143.746 105.328 142.106 104.612 141.199C103.112 139.332 102.1 137.361 101.699 135.564C101.507 134.727 101.507 134.308 101.681 134.256C101.943 134.186 106.601 133.087 110.963 132.075C113.388 131.517 116.196 130.854 117.208 130.609C118.22 130.365 119.041 130.173 119.058 130.173ZM121.291 131.028L121.849 131.656C124.361 134.465 126.926 136.541 130.031 138.355C130.59 138.669 131.008 138.948 130.973 138.966C130.851 139.053 120.192 142.839 115.255 144.548C112.481 145.525 110.195 146.31 110.178 146.31C110.161 146.31 110.004 146.206 109.829 146.084L109.515 145.857L110.021 145.124C111.661 142.751 113.72 140.152 118.203 134.744L121.291 131.028ZM135.213 140.989C135.23 140.972 135.998 141.251 136.94 141.6C139.208 142.455 141.005 142.996 143.412 143.606C146.378 144.357 150.67 145.089 153.2 145.299C153.583 145.333 153.793 145.369 153.723 145.421C153.601 145.491 151.036 146.346 149.152 146.939C146.151 147.881 136.992 150.585 129.525 152.731C128.147 153.132 126.961 153.463 126.891 153.481C126.717 153.516 126.141 153.359 126.141 153.289C126.141 153.254 126.56 152.713 127.066 152.12C129.578 149.119 132.073 145.77 134.149 142.595C134.724 141.722 135.213 141.007 135.213 140.989ZM132.142 141.077C132.16 141.094 130.921 143.083 128.758 146.502C127.833 147.95 126.804 149.59 126.437 150.166C126.088 150.724 125.565 151.597 125.269 152.085L124.763 152.975L124.501 152.905C123.873 152.731 119.459 151.178 118.29 150.707C116.842 150.131 115.342 149.433 114.225 148.84C112.83 148.09 111.085 146.973 111.224 146.939C111.259 146.921 113.649 146.275 116.528 145.491C124.169 143.414 128.409 142.211 131.183 141.338C131.689 141.181 132.125 141.059 132.142 141.077ZM153.862 146.171H153.88C153.95 146.345 151.124 154.196 150.094 156.673C149.867 157.231 149.78 157.371 149.658 157.354C149.361 157.336 145.262 156.761 142.767 156.394C138.423 155.731 131.13 154.457 129.299 154.039L128.88 153.952L131.479 153.358C137.062 152.102 139.749 151.422 142.47 150.585C145.907 149.538 149.309 148.229 152.746 146.624C153.287 146.38 153.74 146.188 153.862 146.171Z" fill="url(#paint0_linear_3_40)"/>
<path d="M140.9 43.0129C140.516 42.9608 134.323 45.1939 130.328 46.8161C124.937 49.0146 120.75 51.1082 118.168 52.9222C117.209 53.6029 116.005 54.8065 115.813 55.2774C115.743 55.4519 115.708 55.6613 115.708 55.8706L118.046 58.0863L123.611 59.8657L136.853 62.2384L151.996 64.8379L152.153 63.5295C152.101 63.5295 152.066 63.5121 152.014 63.5121L150.024 63.198L149.623 62.4828C147.565 58.8539 145.297 54.3528 143.971 51.3172C142.942 48.962 141.965 46.2407 141.424 44.2866C141.127 43.1003 141.092 43.0306 140.901 43.0132V43.0128H140.9V43.0129ZM140.621 43.9029H140.639C140.656 43.9201 140.726 44.4089 140.796 44.9843C141.092 47.4271 141.633 49.7819 142.488 52.3291C143.133 54.2482 143.133 54.1437 142.383 53.9167C140.604 53.4284 132.631 52.0501 126.856 51.2476C125.932 51.1254 125.147 51.0034 125.147 50.986C125.077 50.9162 129.316 48.7004 131.183 47.8283C133.573 46.729 140.132 43.99 140.621 43.9029ZM123.803 51.7186L124.484 51.9451C128.182 53.2014 137.48 54.981 142.61 55.3996C143.185 55.452 143.674 55.5045 143.691 55.5045C143.709 55.5218 143.22 55.7835 142.592 56.08C140.115 57.3187 137.393 58.8365 135.509 60.0055C134.951 60.3542 134.445 60.6335 134.375 60.6335C134.306 60.6335 133.939 60.5637 133.555 60.5113L132.858 60.4065L131.113 58.6967C128.043 55.7136 125.635 53.4108 124.71 52.5384L123.803 51.7186ZM123.105 52.2593L125.565 55.3299C126.908 57.0221 128.269 58.6794 128.566 59.0456C128.862 59.4122 129.107 59.7089 129.089 59.7263C129.02 59.7786 125.531 59.0981 123.681 58.6796C121.779 58.2433 120.994 58.034 119.826 57.6678L118.866 57.3536V57.1092C118.883 55.9403 120.366 54.1958 122.879 52.4165L123.105 52.2593ZM144.006 56.4464C144.075 56.4464 144.162 56.6033 144.372 57.0744C144.965 58.3827 146.814 61.907 147.268 62.5873C147.408 62.8143 147.651 62.8317 145.192 62.4304C139.278 61.4706 137.376 61.1569 137.376 61.122C137.376 61.1047 137.551 60.9824 137.777 60.8602C139.609 59.8486 141.458 58.5574 143.098 57.1792C143.5 56.8476 143.866 56.5337 143.936 56.4812C143.953 56.4464 143.988 56.429 144.006 56.4464Z" fill="url(#paint1_linear_3_40)"/>
<path d="M115.935 55.0332C115.935 55.0332 115.551 55.6441 115.917 56.5513C116.145 57.1094 116.807 57.7897 117.557 58.4876C117.557 58.4876 125.321 66.0591 126.263 67.1409C130.554 72.0954 132.421 76.9803 132.596 83.7145C132.7 88.0411 131.88 91.8443 129.839 96.2582C126.21 104.179 118.552 112.919 106.741 122.619L108.468 122.043C109.585 121.206 111.102 120.316 114.661 118.362C122.878 113.861 132.125 109.726 143.465 105.47C159.794 99.3285 186.643 92.1406 201.926 89.8031L203.513 89.5587L203.269 89.1749C201.874 87.0115 200.914 85.6683 199.762 84.2378C196.413 80.0856 192.348 76.7187 187.376 73.9272C180.537 70.1068 171.692 67.1235 160.492 64.9079C158.381 64.489 153.74 63.6865 149.972 63.1108C141.981 61.8725 136.817 61.0175 131.13 60.0405C129.089 59.6914 126.036 59.1682 124.012 58.7321C122.965 58.5051 120.959 58.0341 119.389 57.4934C118.133 57.0046 116.319 56.5161 115.935 55.0332ZM120.436 59.3949C120.453 59.3777 120.732 59.482 121.099 59.6042C121.762 59.8307 122.617 60.0925 123.629 60.3719C124.395 60.5825 125.162 60.786 125.932 60.9824C126.978 61.2439 127.851 61.4883 127.868 61.4883C127.99 61.6105 129.752 67.2451 130.345 69.4085C130.572 70.2286 130.747 70.9263 130.729 70.9263C130.711 70.944 130.52 70.6472 130.293 70.246C128.252 66.6521 125.024 63.0059 121.291 60.0749C120.803 59.7263 120.436 59.4122 120.436 59.3949ZM129.019 61.7675C129.107 61.7675 129.491 61.8199 129.961 61.9245C132.927 62.5874 138.248 63.5993 141.65 64.175C142.226 64.2622 142.68 64.3671 142.68 64.4017C142.68 64.4368 142.47 64.5587 142.208 64.6984C141.633 64.9949 139.312 66.373 138.545 66.8965C136.608 68.1875 134.864 69.5831 133.608 70.8392C133.102 71.3452 132.665 71.7639 132.665 71.7639C132.665 71.7639 132.561 71.4674 132.473 71.1008C131.846 68.6758 130.537 65.0819 129.351 62.5524C129.159 62.1512 129.002 61.7848 129.002 61.75C129.002 61.7849 129.002 61.7675 129.019 61.7675ZM144.128 64.6461C144.232 64.6808 144.407 65.2741 144.756 66.5824C145.401 69.1122 145.698 71.9384 145.593 74.5728C145.558 75.3055 145.523 75.9858 145.488 76.0732L145.436 76.2475L144.529 75.951C142.662 75.3579 139.627 74.4679 137.027 73.7354C135.544 73.3341 134.341 72.9677 134.341 72.9329C134.341 72.8281 136.504 70.6648 137.429 69.845C139.19 68.2921 143.97 64.5936 144.128 64.6461ZM145.331 64.8203C145.384 64.7683 152.554 66.0066 155.816 66.6348C158.242 67.1057 161.765 67.8386 161.975 67.9259C162.079 67.9607 161.713 68.17 160.544 68.6933C155.938 70.7696 152.519 72.636 149.117 74.9042C148.227 75.4974 147.477 75.9858 147.46 75.9858C147.442 75.9858 147.425 75.48 147.425 74.8693C147.425 71.5547 146.762 68.205 145.541 65.3788C145.418 65.0996 145.314 64.838 145.331 64.8203ZM163.876 68.4842C163.929 68.5365 163.702 69.9497 163.492 70.787C162.864 73.3865 161.172 77.2423 159.096 80.8708C158.73 81.5163 158.398 82.0397 158.363 82.0571C158.329 82.0745 157.858 81.8127 157.317 81.4987C155.293 80.3124 152.99 79.1959 150.478 78.149C149.78 77.8526 149.169 77.6081 149.152 77.5736C149.03 77.4687 154.647 73.7527 157.613 71.9733C159.968 70.5428 163.806 68.4143 163.876 68.4842ZM165.202 68.6934C165.359 68.6934 168.534 69.5658 170.191 70.0543C174.291 71.2756 179.002 73.0026 182.072 74.3983L183.346 74.9742L182.456 75.1834C174.955 76.9104 168.534 78.8995 162.341 81.4117C161.835 81.621 161.381 81.7955 161.347 81.7955C161.312 81.7955 161.486 81.3943 161.713 80.9056C163.58 76.9455 164.784 72.8108 165.08 69.2865C165.098 68.955 165.15 68.6934 165.202 68.6934ZM133.59 75.951C133.642 75.8986 136.068 76.4744 137.376 76.8405C139.365 77.399 143.587 78.8119 143.587 78.9167C143.587 78.9341 143.116 79.3354 142.558 79.8241C140.272 81.7256 138.074 83.7317 135.439 86.2789C134.654 87.0293 133.991 87.6398 133.957 87.6398C133.922 87.6398 133.905 87.5349 133.922 87.3954C134.323 84.4644 134.236 80.6962 133.678 76.8756C133.625 76.3869 133.573 75.9684 133.59 75.951ZM184.55 76.0035C184.584 76.0382 183.433 77.8526 182.7 78.8817C181.654 80.3821 180.118 82.3713 176.646 86.7327C174.815 89.0353 172.756 91.635 172.076 92.5072C171.378 93.3794 170.802 94.112 170.785 94.112C170.767 94.112 170.541 93.7982 170.296 93.4144C168.342 90.4834 166.004 87.9188 163.231 85.616C162.707 85.1798 162.132 84.7087 161.94 84.5691C161.748 84.4296 161.591 84.2901 161.591 84.2727C161.591 84.2205 164.556 82.9466 166.807 82.0396C170.75 80.4345 176.123 78.5155 180.153 77.2768C182.264 76.6139 184.515 75.9684 184.55 76.0035ZM185.893 76.3522C185.963 76.3349 186.382 76.5442 186.887 76.8405C191.127 79.2655 195.279 82.3885 198.559 85.5986C199.483 86.5059 201.769 88.8785 201.734 88.8959C201.734 88.8959 200.931 88.9657 199.989 89.0353C192.645 89.5938 183.241 91.1462 174.204 93.3269C173.594 93.4663 173.053 93.5885 173.018 93.5885C172.984 93.5885 173.664 92.9083 174.519 92.0884C179.822 86.9768 182.247 83.7493 185.108 77.992C185.509 77.1374 185.858 76.4046 185.893 76.3522C185.876 76.3522 185.876 76.3522 185.893 76.3522ZM147.041 80.3301C147.285 80.3821 149.553 81.4467 151.263 82.3013C152.833 83.0861 155.188 84.3425 155.31 84.447C155.328 84.4644 154.49 84.9006 153.461 85.4066C150.181 87.0465 147.373 88.599 144.442 90.3786C143.604 90.8846 142.906 91.3035 142.889 91.3035C142.819 91.3035 142.837 91.2334 143.308 90.3786C144.878 87.5177 146.134 84.0983 146.849 80.766C146.919 80.5043 146.989 80.3301 147.041 80.3301ZM144.773 80.7486C144.825 80.801 144.232 82.9467 143.866 84.1157C143.15 86.3313 141.947 89.1052 140.778 91.1987C140.499 91.6869 140.08 92.4023 139.853 92.8035L139.417 93.5013L138.44 92.5595C137.306 91.4603 136.381 90.78 135.195 90.1692C134.724 89.9252 134.358 89.7156 134.358 89.6809C134.358 89.5413 137.341 86.8373 139.627 84.8833C141.266 83.4701 144.721 80.6963 144.773 80.7486ZM158.643 86.4535L159.498 87.0116C161.451 88.2854 163.754 89.9775 165.516 91.4603C166.511 92.2801 168.429 94.0075 168.814 94.4262L169.023 94.6532L167.61 95.0543C159.62 97.2698 153.444 99.2412 146.238 101.893C145.436 102.19 144.756 102.434 144.703 102.434C144.599 102.434 144.511 102.521 146.308 100.864C150.914 96.6246 154.996 91.9487 158.032 87.3954L158.643 86.4535ZM154.996 87.3607C155.031 87.3954 152.641 90.7624 151.21 92.6641C149.501 94.9321 146.465 98.7352 144.372 101.212C143.5 102.242 142.75 103.097 142.715 103.114C142.662 103.132 142.645 102.87 142.645 102.469C142.645 100.358 142.104 98.107 141.162 96.1881C140.76 95.3856 140.691 95.1937 140.778 95.1065C141.11 94.8098 146.186 91.9138 149.396 90.1868C151.559 89.0354 154.944 87.3258 154.996 87.3607ZM132.945 92.7689C132.997 92.7689 133.398 92.9781 133.852 93.2225C134.968 93.833 135.963 94.5134 136.853 95.2463C136.887 95.281 136.434 95.6476 135.841 96.0834C134.183 97.2698 131.671 99.1715 130.206 100.34C128.67 101.562 128.618 101.597 128.793 101.335C129.944 99.5728 130.52 98.5784 131.131 97.3049C131.671 96.1711 132.212 94.8276 132.596 93.6587C132.735 93.1527 132.91 92.7689 132.945 92.7689ZM138.824 97.3745C138.911 97.3573 139.016 97.5141 139.487 98.2121C140.481 99.6947 141.249 101.684 141.441 103.289L141.476 103.638L139.086 104.563C134.811 106.22 130.869 107.86 128.199 109.081C127.449 109.43 126.141 110.058 125.286 110.477C124.431 110.913 123.733 111.244 123.733 111.227C123.733 111.209 124.274 110.808 124.937 110.319C130.154 106.534 134.672 102.382 138.056 98.2295C138.423 97.7932 138.754 97.392 138.789 97.3746L138.824 97.3745ZM136.12 98.0376C136.19 98.1073 134.201 100.358 132.84 101.736C129.473 105.173 126.141 107.86 122.006 110.477C121.483 110.808 121.012 111.105 120.959 111.14C120.837 111.209 120.994 111.035 122.809 109.063C123.96 107.825 124.832 106.778 125.827 105.487C126.49 104.632 126.612 104.51 127.572 103.83C130.136 101.98 136.05 97.9677 136.12 98.0376Z" fill="url(#paint2_radial_3_40)"/>
<path d="M60.5734 170.276C60.2516 170.276 59.9297 170.306 59.6107 170.306C53.1104 170.653 48.7262 173.514 46.1629 179.1C43.9705 184.153 44.2099 190.757 46.1875 195.84C48.4872 200.808 52.2031 203.429 58.4057 204.419C59.718 204.634 60.598 205.355 63.1398 208.322L66.2673 211.986H71.9395L68.1678 208.184C66.0829 206.099 64.3966 204.284 64.3966 204.125C64.3966 203.965 65.1941 203.616 66.1595 203.322C69.3422 202.358 71.9852 199.9 73.8339 196.131C75.3303 193.105 75.545 192.17 75.7595 188.405C76.3207 177.199 70.4122 170.192 60.5732 170.273L60.5734 170.276ZM65.5465 199.581C62.787 200.918 58.7801 201.185 56.1645 200.225C53.4602 199.232 50.8418 196.423 49.6642 193.244C48.3551 189.767 48.542 183.353 50.0383 180.464C52.4452 175.865 55.628 173.75 60.2791 173.75C67.1777 173.75 71.1022 177.975 71.6143 185.916C72.0191 192.545 69.7991 197.518 65.5494 199.578L65.5465 199.581ZM163.532 179.848C161.153 179.848 159.331 180.811 158.105 182.708L157.142 184.211V180.305H153.024V203.73H157.139V196.242C157.139 189.396 157.225 188.595 158.182 186.722C159.5 184.153 161.769 182.871 163.961 183.485L165.433 183.914V179.854H163.532V179.848ZM139.341 179.633C138.534 179.633 137.679 179.741 136.827 179.928C131.317 181.369 128.211 186.642 128.401 192.069C128.401 196.613 129.284 198.885 131.476 201.268C135.968 204.953 140.031 205.247 145.513 203.27C146.448 202.871 147.466 202.411 147.466 202.411V198.726L145.513 199.738C141.076 201.669 137.734 201.669 135.057 199.394C133.35 197.656 132.598 195.571 132.252 193.192H148.855V190.033C148.855 183.595 144.979 179.529 139.337 179.633H139.341ZM132.626 189.905C132.626 189.905 133.239 185.888 135.514 184.312C136.609 183.539 137.866 183.166 139.095 183.166C140.328 183.166 141.557 183.564 142.572 184.34C144.657 185.943 145.007 189.874 145.007 189.874H132.626V189.905H132.626ZM33.3558 185.68C28.8918 182.975 26.911 181.025 27.1532 178.726C27.846 172.364 35.7077 173.244 40.0613 175.651L40.0922 171.371C40.0922 171.371 37.6852 170.328 34.2358 170.273C28.9438 170.193 25.5221 171.928 23.9187 175.46C21.5638 180.673 23.6489 184.603 31.1855 188.988C35.4165 191.45 37.2867 193.587 37.2867 195.917C37.2867 200.731 31.4827 202.411 25.4948 199.391C24.2624 198.778 23.2198 198.266 23.1647 198.266C22.9499 199.63 23.0606 202.896 23.0606 202.896C23.0606 202.896 24.9004 203.668 27.6596 204.201C34.5027 205.566 40.7302 202.356 41.3188 197.143C41.8309 192.25 40.0614 189.684 33.3561 185.676L33.3558 185.68ZM199.975 179.578C199.172 179.578 198.319 179.689 197.43 179.876C191.927 181.317 188.827 186.59 189.038 192.017C189.038 196.555 189.918 198.806 192.11 201.185C196.602 204.873 200.665 205.171 206.175 203.19C207.107 202.792 208.122 202.338 208.122 202.338V198.647L206.172 199.664C201.726 201.59 198.384 201.59 195.717 199.315C193.999 197.58 193.254 195.519 192.908 193.112H209.483V189.954C209.483 183.546 205.607 179.477 199.966 179.585L199.975 179.578ZM193.26 189.85C193.26 189.85 193.88 185.839 196.152 184.232C197.243 183.457 198.5 183.083 199.73 183.083C200.956 183.083 202.192 183.481 203.207 184.26C205.292 185.864 205.642 189.822 205.642 189.822H193.264L193.26 189.85ZM117.786 185.732C113.322 183.034 111.347 181.077 111.587 178.778C112.279 172.412 120.141 173.296 124.495 175.703L124.526 171.423C124.526 171.423 122.119 170.38 118.669 170.331C113.377 170.251 109.955 171.987 108.349 175.519C105.997 180.731 108.11 184.662 115.622 189.046C119.847 191.505 121.717 193.615 121.717 195.945C121.717 200.759 115.916 202.466 109.928 199.419C108.702 198.805 107.659 198.299 107.598 198.299C107.383 199.664 107.494 202.929 107.494 202.929C107.494 202.929 109.312 203.674 112.062 204.235C118.912 205.603 125.142 202.395 125.728 197.183C126.237 192.314 124.471 189.748 117.786 185.738V185.732H117.786ZM224.169 179.793C221.79 179.793 219.948 180.758 218.743 182.657L217.78 184.153V180.253H213.662V203.671H217.777V196.184C217.777 189.341 217.859 188.537 218.819 186.667C220.138 184.101 222.406 182.816 224.599 183.432L226.07 183.861V179.793L224.169 179.793ZM85.0406 185.597V170.677H80.8893V203.724H98.3477V199.821H85.0408V185.597H85.0406ZM181.045 190.248L177.624 199.152L174.333 190.199L170.991 180.277H166.742C169.496 188.084 172.491 196.025 175.511 203.724C176.82 203.754 178.132 203.724 179.441 203.724L184.062 192.121L188.769 180.28H184.706C184.706 180.28 182.912 184.984 181.042 190.251L181.045 190.248ZM94.6067 161.672C95.2752 161.672 95.8331 161.458 96.293 160.998C96.7466 160.544 96.9858 160.01 96.9858 159.342C96.9858 158.674 96.7466 158.116 96.293 157.686C95.8331 157.257 95.3026 157.042 94.6372 157.042C93.9629 157.042 93.4047 157.257 92.9509 157.711C92.4911 158.165 92.2825 158.723 92.2825 159.367C92.2825 160.041 92.4973 160.599 92.9509 161.022C93.3803 161.451 93.9383 161.666 94.6067 161.666V161.672ZM93.1351 157.87C93.5335 157.472 94.0181 157.288 94.6374 157.288C95.22 157.288 95.7046 157.472 96.1094 157.87C96.5079 158.269 96.7225 158.753 96.7225 159.342C96.7225 159.931 96.5079 160.44 96.1094 160.838C95.7047 161.237 95.22 161.427 94.6374 161.427C94.0457 161.427 93.5642 161.243 93.1658 160.838C92.7672 160.44 92.5526 159.931 92.5526 159.342C92.5526 158.753 92.7365 158.269 93.1351 157.87ZM94.1253 159.557H94.395C94.5853 159.557 94.7722 159.741 94.9316 160.09L95.2538 160.814H95.7596L95.3611 160.01C95.1987 159.688 95.0393 159.501 94.8521 159.449C95.0882 159.394 95.2752 159.314 95.4102 159.155C95.5448 159.017 95.594 158.83 95.594 158.618C95.594 158.373 95.5174 158.189 95.355 158.054C95.171 157.901 94.8766 157.818 94.4963 157.818H93.6443V160.814H94.0734V159.557L94.1253 159.557ZM94.1253 158.165H94.4995C94.7693 158.165 94.9594 158.22 95.0636 158.299C95.1649 158.379 95.1924 158.484 95.1924 158.674C95.1924 159.02 94.9775 159.183 94.5792 159.183H94.1195V158.165H94.1253ZM25.5495 159.29C25.5495 158.247 25.5189 157.472 25.4943 157.015H25.5189C25.6261 157.554 25.758 157.956 25.8653 158.223L29.8511 167.127H30.5196L34.5053 158.143C34.6129 157.898 34.7202 157.53 34.852 157.018H34.8825C34.8029 157.907 34.7753 158.68 34.7753 159.296V167.154H36.1394V155.473H34.4287L30.7649 163.598C30.6298 163.92 30.4428 164.401 30.2037 165.039H30.1483C30.0687 164.723 29.8816 164.242 29.615 163.653L26.0336 155.445H24.2156V167.126H25.5279V159.296L25.5495 159.29ZM39.1291 159.312H40.3067V166.587H39.1291V159.312ZM39.7178 156.644C39.9633 156.644 40.1717 156.561 40.331 156.399C40.4936 156.239 40.6011 156.031 40.6011 155.786C40.6011 155.546 40.5212 155.332 40.3343 155.172C40.1687 155.01 39.9571 154.927 39.7149 154.927C39.4759 154.927 39.2613 155.01 39.1015 155.172C38.9395 155.332 38.8319 155.546 38.8319 155.786C38.8319 156.052 38.9148 156.239 39.1015 156.399C39.2859 156.561 39.4758 156.644 39.7149 156.644H39.7178ZM48.7016 166.747V165.465C48.0576 165.946 47.3647 166.186 46.6473 166.186C45.789 166.186 45.0927 165.892 44.5837 165.328C44.078 164.77 43.8082 163.993 43.8082 163.028C43.8082 162.016 44.078 161.212 44.6359 160.599C45.1725 160.011 45.8686 159.716 46.7211 159.716C47.417 159.716 48.085 159.931 48.7018 160.36V158.996C48.1408 158.702 47.5 158.567 46.7762 158.567C45.4393 158.567 44.3971 158.996 43.6183 159.824C42.8455 160.652 42.4469 161.777 42.4469 163.136C42.4469 164.343 42.7933 165.358 43.5141 166.134C44.2652 166.931 45.2252 167.336 46.4024 167.336C47.3126 167.311 48.0576 167.121 48.7016 166.747ZM52.0711 162.868C52.0711 161.908 52.2857 161.133 52.6843 160.599C53.0585 160.118 53.5121 159.876 54.0487 159.876C54.5025 159.876 54.8243 159.958 55.0603 160.145V158.753C54.8765 158.674 54.6097 158.646 54.2633 158.646C53.7819 158.646 53.3529 158.808 52.9757 159.106C52.5771 159.422 52.2583 159.903 52.0712 160.516H52.0407V158.808H50.7069V167.148H52.0436V162.868H52.0711ZM59.7455 167.314C61.0027 167.314 62.0145 166.909 62.7655 166.106C63.5135 165.308 63.8876 164.236 63.8876 162.898C63.8876 161.534 63.5444 160.492 62.8453 159.716C62.1525 158.941 61.1895 158.566 59.9322 158.566C58.675 158.566 57.6632 158.94 56.9122 159.664C56.109 160.461 55.6858 161.586 55.6858 163.031C55.6858 164.288 56.0292 165.33 56.753 166.106C57.5009 166.909 58.4914 167.311 59.7455 167.311V167.314ZM57.8445 160.519C58.3535 159.983 59.0221 159.716 59.8497 159.716C60.7085 159.716 61.3522 159.983 61.8305 160.519C62.3118 161.081 62.5512 161.881 62.5512 162.951C62.5512 163.969 62.3364 164.769 61.8825 165.306C61.429 165.867 60.7605 166.164 59.8772 166.164C59.0189 166.164 58.3535 165.866 57.8445 165.306C57.3388 164.741 57.0964 163.969 57.0964 162.951C57.0444 161.939 57.3112 161.111 57.8445 160.519ZM69.741 166.587C70.2499 166.134 70.5199 165.576 70.5199 164.876C70.5199 164.263 70.305 163.754 69.9066 163.352C69.5814 163.031 69.0789 162.739 68.3522 162.445C67.708 162.175 67.3096 161.936 67.0948 161.749C66.8803 161.534 66.7484 161.268 66.7484 160.89C66.7484 160.544 66.8834 160.277 67.1473 160.063C67.417 159.848 67.7605 159.744 68.2204 159.744C68.9409 159.744 69.5571 159.934 70.1211 160.336V158.999C69.5816 158.729 68.9959 158.601 68.3274 158.601C67.4691 158.601 66.7454 158.837 66.2117 159.293C65.6505 159.747 65.384 160.336 65.384 161.029C65.384 161.642 65.5678 162.151 65.9172 162.525C66.2116 162.844 66.7148 163.169 67.4135 163.46C68.0821 163.754 68.5358 164.021 68.7779 164.235C69.017 164.45 69.1243 164.717 69.1243 165.033C69.1243 165.811 68.591 166.213 67.5484 166.213C66.745 166.213 66.0248 165.95 65.3805 165.416V166.857C65.9631 167.207 66.6623 167.366 67.4349 167.366C68.4253 167.314 69.2008 167.072 69.7344 166.59L69.741 166.587ZM76.1062 158.566C74.8488 158.566 73.8372 158.941 73.086 159.664C72.2889 160.462 71.8596 161.587 71.8596 163.031C71.8596 164.288 72.2063 165.331 72.9267 166.106C73.6778 166.909 74.665 167.311 75.9222 167.311C77.2099 167.311 78.1912 166.906 78.9423 166.103C79.6935 165.306 80.0675 164.233 80.0675 162.896C80.0675 161.531 79.7179 160.489 79.0249 159.713C78.3017 158.937 77.3385 158.563 76.1121 158.563L76.1062 158.566ZM78.7 162.951C78.7 163.969 78.4853 164.769 78.0316 165.306C77.5778 165.867 76.9093 166.164 76.0262 166.164C75.1674 166.164 74.5023 165.867 73.9931 165.306C73.4874 164.742 73.2452 163.969 73.2452 162.951C73.2452 161.878 73.5121 161.05 74.0487 160.492C74.5543 159.958 75.2231 159.688 76.0539 159.688C76.8816 159.688 77.5471 159.958 78.0282 160.492C78.4576 161.08 78.6968 161.881 78.6968 162.951H78.7ZM82.312 167.124H83.6457V159.903H85.5987V158.781H83.6456V157.493C83.6456 156.322 84.0991 155.734 85.0375 155.734C85.3534 155.734 85.6753 155.813 85.9146 155.948V154.743C85.6753 154.636 85.3534 154.612 84.9514 154.612C84.2311 154.612 83.6425 154.826 83.1609 155.28C82.5997 155.813 82.3025 156.506 82.3025 157.445V158.812H80.8918V159.934H82.3025V167.128L82.312 167.124ZM87.7908 164.849C87.7908 166.48 88.5116 167.311 89.9831 167.311C90.5167 167.311 90.9183 167.225 91.2402 167.035V165.888C90.9951 166.072 90.7037 166.158 90.3819 166.158C89.9283 166.158 89.6093 166.051 89.4221 165.808C89.232 165.57 89.1248 165.165 89.1248 164.607V159.9H91.2401V158.778H89.1248V156.319C88.6648 156.479 88.2142 156.614 87.7878 156.748V158.778H86.3468V159.9H87.7878V164.846L87.7908 164.849ZM231.283 180.222C230.829 179.793 230.292 179.578 229.627 179.578C228.953 179.578 228.394 179.793 227.941 180.253C227.487 180.703 227.272 181.264 227.272 181.908C227.272 182.577 227.487 183.135 227.937 183.564C228.391 183.993 228.949 184.208 229.624 184.208C230.289 184.208 230.85 183.993 231.31 183.54C231.761 183.08 232 182.549 232 181.884C231.976 181.209 231.733 180.651 231.28 180.222L231.283 180.222ZM231.068 183.38C230.67 183.779 230.185 183.963 229.596 183.963C229.014 183.963 228.53 183.779 228.125 183.38C227.726 182.975 227.511 182.469 227.511 181.878C227.511 181.295 227.695 180.811 228.1 180.406C228.499 180.008 228.98 179.823 229.596 179.823C230.179 179.823 230.664 180.008 231.068 180.406C231.467 180.811 231.681 181.295 231.681 181.878C231.681 182.497 231.497 182.975 231.068 183.38ZM229.866 182.016C230.105 181.961 230.296 181.853 230.427 181.721C230.562 181.583 230.612 181.396 230.612 181.182C230.612 180.943 230.535 180.753 230.372 180.621C230.189 180.467 229.891 180.385 229.514 180.385H228.662V183.377H229.091V182.12H229.358C229.542 182.12 229.726 182.304 229.891 182.653L230.21 183.374H230.719L230.321 182.57C230.183 182.221 230.023 182.061 229.861 182.009L229.866 182.016ZM229.572 181.746H229.112V180.734H229.489C229.756 180.734 229.943 180.783 230.05 180.866C230.158 180.946 230.182 181.05 230.182 181.24C230.182 181.587 229.968 181.746 229.569 181.746L229.572 181.746ZM154.978 158.435H155.352V155.439H156.342V155.065H153.987V155.439H154.978V158.435H154.978ZM157.247 156.184C157.247 155.893 157.247 155.654 157.225 155.519C157.25 155.678 157.305 155.786 157.329 155.865L158.479 158.435H158.663L159.816 155.841C159.847 155.761 159.871 155.657 159.923 155.519C159.899 155.786 159.899 156 159.899 156.163V158.432H160.297V155.065H159.816L158.774 157.389C158.749 157.472 158.666 157.634 158.614 157.818H158.583C158.562 157.711 158.507 157.604 158.43 157.42L157.388 155.065H156.848V158.438H157.225V156.187L157.247 156.184Z" fill="#231F1F"/>
</g>
<defs>
<linearGradient id="paint0_linear_3_40" x1="115.578" y1="146.865" x2="123.924" y2="141.933" gradientUnits="userSpaceOnUse">
<stop stop-color="#909CA9"/>
<stop offset="1" stop-color="#EDEDEE"/>
</linearGradient>
<linearGradient id="paint1_linear_3_40" x1="115.769" y1="53.8913" x2="122.485" y2="53.8913" gradientUnits="userSpaceOnUse">
<stop stop-color="#939FAB"/>
<stop offset="1" stop-color="#DCDEE1"/>
</linearGradient>
<radialGradient id="paint2_radial_3_40" cx="0" cy="0" r="1" gradientUnits="userSpaceOnUse" gradientTransform="translate(149.656 84.6905) rotate(-171.457) scale(8.65811 17.3205)">
<stop stop-color="#EE352C"/>
<stop offset="1" stop-color="#A91D22"/>
</radialGradient>
<clipPath id="clip0_3_40">
<rect width="209" height="209" fill="white" transform="translate(23 23)"/>
</clipPath>
</defs>
</svg>
