<svg width="255" height="255" viewBox="0 0 255 255" fill="none" xmlns="http://www.w3.org/2000/svg">
<rect width="255" height="255" rx="50" fill="#242938"/>
<path d="M57.796 206.208L52.0067 51.9493C51.8155 46.8547 55.7219 42.5371 60.8101 42.2191L192.018 34.0186C197.197 33.6949 201.658 37.6311 201.982 42.8103C201.994 43.0054 202 43.2009 202 43.3964V211.488C202 216.678 197.793 220.884 192.604 220.884C192.463 220.884 192.323 220.881 192.182 220.875L66.7639 215.242C61.8793 215.023 57.9794 211.094 57.796 206.208Z" fill="#FF4785"/>
<mask id="mask0_3_57" style="mask-type:luminance" maskUnits="userSpaceOnUse" x="52" y="34" width="150" height="187">
<path d="M57.796 206.208L52.0067 51.9493C51.8155 46.8547 55.7219 42.5371 60.8101 42.2191L192.018 34.0186C197.197 33.6949 201.658 37.6311 201.982 42.8103C201.994 43.0054 202 43.2009 202 43.3964V211.488C202 216.678 197.793 220.884 192.604 220.884C192.463 220.884 192.323 220.881 192.182 220.875L66.7639 215.242C61.8793 215.023 57.9794 211.094 57.796 206.208Z" fill="white"/>
</mask>
<g mask="url(#mask0_3_57)">
<path d="M162.764 56.9711L163.66 35.4158L181.679 34L182.455 56.2293C182.482 57.0029 181.877 57.6519 181.103 57.679C180.772 57.6905 180.447 57.5843 180.187 57.3792L173.238 51.9053L165.011 58.146C164.394 58.6138 163.515 58.4931 163.047 57.8764C162.85 57.6168 162.75 57.2967 162.764 56.9711ZM139.719 104.439C139.719 108.095 164.343 106.343 167.649 103.775C167.649 78.8812 154.291 65.7998 129.831 65.7998C105.372 65.7998 91.6672 79.0847 91.6672 99.012C91.6672 133.719 138.505 134.383 138.505 153.314C138.505 158.628 135.903 161.783 130.178 161.783C122.719 161.783 119.77 157.974 120.117 145.021C120.117 142.211 91.6672 141.335 90.7998 145.021C88.5911 176.41 108.147 185.464 130.525 185.464C152.209 185.464 169.21 173.906 169.21 152.982C169.21 115.784 121.678 116.781 121.678 98.3478C121.678 90.875 127.229 89.8787 130.525 89.8787C133.995 89.8787 140.24 90.4902 139.719 104.439Z" fill="white"/>
</g>
</svg>
